<svg width="238" height="200" viewBox="0 0 238 200" fill="none" xmlns="http://www.w3.org/2000/svg">
<path d="M84.6606 150.189C92.7401 150.327 100.821 150.364 108.902 150.3C115.854 150.266 122.002 151.35 127.394 146.143C129.323 144.288 130.418 141.731 130.43 139.054C130.605 126.601 114.255 125.118 105.836 121.318C103.561 120.244 102.54 116.932 104.574 115.176C106.06 114.01 108.252 112.932 110.015 112.192C115.587 109.852 120.905 106.771 126.309 104.197C130.641 102.134 137.65 98.5572 142.26 97.5138C159.392 93.6357 179.584 97.847 193.731 108.284C199.436 112.528 205.346 120.082 207.879 126.624C209.83 131.668 211.441 140.803 211.189 146.189C210.488 159.382 204.543 171.748 194.676 180.534C188.576 186.073 185.043 187.931 177.889 191.445C163.014 198.752 151.675 198.639 135.605 198.889L71.1637 198.893C63.4141 198.811 55.6639 198.793 47.9139 198.836C45.6832 198.846 35.2053 199.256 34.226 198.355C33.8086 196.914 33.9043 192.048 33.8967 190.238L33.9121 174.633C33.9096 172.046 33.4006 164.621 34.2543 162.212C34.7729 160.748 39.2485 157.717 40.4873 156.605C49.9346 149.1 60.0535 142.368 70.4781 136.299C74.9492 133.696 80.7531 130.01 85.4879 128.216C85.1836 133.087 84.9731 137.964 84.8561 142.844C84.7981 145.087 84.8416 148.042 84.6606 150.189Z" fill="black"/>
<path d="M33.3623 125.239C33.9445 119.449 33.8742 114.377 33.8771 108.563L33.8773 90.1205L33.8932 25.6107L33.8707 10.0742C33.8693 8.27046 33.7672 3.26314 34.1223 1.80045C35.8727 1.08332 52.6682 1.4024 55.5395 1.40329L93.1428 1.40922L120.799 1.41738C149.797 1.43261 181.422 1.8257 193.605 33.6041C195.859 39.4887 196.645 46.8572 196.514 53.1463C196.461 54.4437 196.631 56.184 196.176 57.3719C195.002 57.5435 189.381 59.6922 187.767 60.1223C183.555 61.2451 178.646 62.8797 174.385 63.7408C163.199 66.0017 148.521 68.8562 138.134 62.9018C134.557 60.8512 132.512 58.0752 129.716 56.3342C124.991 50.8545 121.183 51.3221 114.468 51.2865C113.099 51.2793 111.677 51.2725 110.304 51.2683L93.6986 51.2398C91.2775 51.2351 86.2182 51.3488 83.9772 51.0654C84.0383 54.4615 83.5564 61.2701 82.8955 64.5115C81.1807 72.9225 75.3918 80.4734 69.8049 86.7752C65.2457 91.9176 60.4551 97.5598 55.6836 102.509L41.1563 117.588C38.7809 120.026 36.0326 123.169 33.3623 125.239Z" fill="black"/>
<path d="M224.186 48.8832C226.154 48.1885 234.334 45.6112 235.854 46.2012L235.773 46.5084C232.938 47.824 227.732 50.0256 224.754 51.2031C221.574 52.2926 217.902 54.2469 214.748 55.6278L201.744 61.2569C199.953 62.052 196.215 63.5738 194.819 64.7065C192.957 65.3526 191.125 66.0781 189.326 66.8809C188.856 67.0934 187.219 67.9738 186.993 68.0592C184.791 68.6094 182.574 69.7738 180.487 70.6569C176.443 72.3672 172.3 74.5613 168.281 76.2332C139.905 88.0768 112.16 101.379 85.1564 116.086C70.3406 124.324 55.5904 133.409 41.4273 142.709C28.9641 150.893 17.6084 160.622 5.67719 169.51C4.09713 170.687 1.54093 173.584 0 174.061V173.31C1.34182 172.599 2.70777 170.238 3.74602 168.984C5.84609 166.449 7.96109 163.95 10.2399 161.563C24.3283 146.805 39.7799 132.673 56.3041 120.693C58.1605 119.347 59.8564 117.618 61.716 116.311C76.126 106.177 90.8922 96.8121 105.96 87.6936C110.919 84.6846 116.737 81.6791 121.308 78.1188C129.389 71.8248 132.058 66.3721 129.716 56.3342C132.512 58.0752 134.557 60.8512 138.134 62.9018C148.521 68.8563 163.199 66.0018 174.385 63.7408C178.646 62.8797 183.555 61.2451 187.767 60.1223C189.381 59.6922 195.002 57.5436 196.176 57.3719C199.41 56.5529 202.98 54.6408 206.297 53.925C211.992 52.6949 218.543 49.8641 224.186 48.8832Z" fill="#0168FD"/>
<path d="M224.186 48.8832C226.154 48.1885 234.334 45.6112 235.854 46.2012L235.773 46.5084C232.938 47.824 227.732 50.0256 224.754 51.2031C225.883 49.5971 229.625 49.442 229.5 47.9322C228.272 47.2026 226.18 49.2944 224.186 48.8832Z" fill="#1755B3"/>
<path d="M186.993 68.0592C187.219 67.9738 188.856 67.0933 189.326 66.8808C191.125 66.0781 192.957 65.3525 194.819 64.7064C194.36 68.1308 189.485 75.6191 186.902 77.8953C183.562 80.8381 177.955 85.4135 173.876 87.1328C177.256 83.372 180.123 80.0761 182.768 75.722C184.273 73.2465 185.522 70.4506 186.993 68.0592Z" fill="#EFEFEF"/>
</svg>
