<svg width="470" height="128" viewBox="0 0 470 128" fill="none" xmlns="http://www.w3.org/2000/svg">
<path d="M152.767 107V84.649H156.859V102.877H175.087V107H152.767ZM190.906 107V88.989C190.906 88.2037 191.103 87.4907 191.495 86.85C191.888 86.1887 192.405 85.6617 193.045 85.269C193.707 84.8763 194.43 84.68 195.215 84.68H208.886C209.672 84.68 210.395 84.8763 211.056 85.269C211.718 85.6617 212.245 86.1887 212.637 86.85C213.03 87.4907 213.226 88.2037 213.226 88.989V107H209.103V99.498H194.998V107H190.906ZM194.998 95.406H209.103V89.175C209.103 89.0717 209.062 88.989 208.979 88.927C208.897 88.8443 208.804 88.803 208.7 88.803H195.37C195.267 88.803 195.174 88.8443 195.091 88.927C195.029 88.989 194.998 89.0717 194.998 89.175V95.406ZM230.801 107V84.68H247.913C248.699 84.68 249.412 84.8763 250.052 85.269C250.714 85.6617 251.241 86.1887 251.633 86.85C252.026 87.4907 252.222 88.2037 252.222 88.989V93.36C252.222 93.6287 252.202 93.887 252.16 94.135C252.119 94.383 252.047 94.6207 251.943 94.848C252.295 95.3233 252.574 95.8193 252.78 96.336C253.008 96.8527 253.121 97.3693 253.121 97.886V102.691C253.121 103.476 252.925 104.2 252.532 104.861C252.14 105.502 251.613 106.018 250.951 106.411C250.29 106.804 249.567 107 248.781 107H230.801ZM235.265 102.877H248.595C248.699 102.877 248.792 102.846 248.874 102.784C248.957 102.701 248.998 102.608 248.998 102.505V98.072C248.998 97.9687 248.957 97.886 248.874 97.824C248.792 97.7413 248.699 97.7 248.595 97.7H235.265C235.162 97.7 235.069 97.7413 234.986 97.824C234.924 97.886 234.893 97.9687 234.893 98.072V102.505C234.893 102.608 234.924 102.701 234.986 102.784C235.069 102.846 235.162 102.877 235.265 102.877ZM235.265 93.577H247.727C247.831 93.577 247.913 93.546 247.975 93.484C248.037 93.4013 248.068 93.3083 248.068 93.205V89.175C248.068 89.0717 248.037 88.989 247.975 88.927C247.913 88.8443 247.831 88.803 247.727 88.803H235.265C235.162 88.803 235.069 88.8443 234.986 88.927C234.924 88.989 234.893 89.0717 234.893 89.175V93.205C234.893 93.3083 234.924 93.4013 234.986 93.484C235.069 93.546 235.162 93.577 235.265 93.577ZM274.667 107C273.882 107 273.159 106.804 272.497 106.411C271.857 106.018 271.34 105.502 270.947 104.861C270.555 104.2 270.358 103.476 270.358 102.691V100.986H274.45V102.505C274.45 102.608 274.481 102.701 274.543 102.784C274.626 102.846 274.719 102.877 274.822 102.877H288.183C288.287 102.877 288.369 102.846 288.431 102.784C288.514 102.701 288.555 102.608 288.555 102.505V98.258C288.555 98.1547 288.514 98.072 288.431 98.01C288.369 97.948 288.287 97.917 288.183 97.917H274.667C273.882 97.917 273.159 97.7207 272.497 97.328C271.857 96.9353 271.34 96.4187 270.947 95.778C270.555 95.1167 270.358 94.383 270.358 93.577V88.989C270.358 88.2037 270.555 87.4907 270.947 86.85C271.34 86.1887 271.857 85.6617 272.497 85.269C273.159 84.8763 273.882 84.68 274.667 84.68H288.369C289.155 84.68 289.868 84.8763 290.508 85.269C291.17 85.6617 291.697 86.1887 292.089 86.85C292.482 87.4907 292.678 88.2037 292.678 88.989V90.694H288.555V89.175C288.555 89.0717 288.514 88.989 288.431 88.927C288.369 88.8443 288.287 88.803 288.183 88.803H274.822C274.719 88.803 274.626 88.8443 274.543 88.927C274.481 88.989 274.45 89.0717 274.45 89.175V93.422C274.45 93.5253 274.481 93.608 274.543 93.67C274.626 93.732 274.719 93.763 274.822 93.763H288.369C289.155 93.763 289.868 93.9593 290.508 94.352C291.17 94.7447 291.697 95.2717 292.089 95.933C292.482 96.5737 292.678 97.297 292.678 98.103V102.691C292.678 103.476 292.482 104.2 292.089 104.861C291.697 105.502 291.17 106.018 290.508 106.411C289.868 106.804 289.155 107 288.369 107H274.667Z" fill="#1763D7"/>
<path d="M63.9601 89.3519C68.2971 89.4215 72.6349 89.4403 76.9723 89.4081C80.7043 89.3909 84.0045 89.9389 86.8988 87.3062C87.9343 86.3684 88.5223 85.0753 88.5282 83.7222C88.6223 77.4257 79.8457 76.6756 75.3268 74.7543C74.1057 74.2111 73.5574 72.5369 74.6494 71.6489C75.4469 71.0593 76.6237 70.5143 77.5703 70.14C80.5607 68.9568 83.4155 67.3991 86.3165 66.0976C88.6417 65.0544 92.4039 63.2461 94.8785 62.7186C104.075 60.7577 114.914 62.887 122.508 68.1643C125.57 70.31 128.742 74.1293 130.102 77.437C131.149 79.9873 132.014 84.6064 131.879 87.3297C131.503 94.0003 128.311 100.253 123.015 104.695C119.741 107.496 117.844 108.435 114.004 110.212C106.019 113.906 99.9323 113.849 91.3062 113.975L56.7152 113.977C52.5553 113.936 48.3951 113.927 44.235 113.949C43.0376 113.954 37.4132 114.161 36.8875 113.706C36.6634 112.977 36.7148 110.517 36.7107 109.601L36.719 101.711C36.7177 100.403 36.4444 96.6492 36.9027 95.4309C37.1811 94.6908 39.5835 93.1583 40.2485 92.5959C45.3197 88.8013 50.7514 85.3977 56.3472 82.329C58.7472 81.0129 61.8626 79.1491 64.4042 78.242C64.2409 80.7051 64.1278 83.1709 64.065 85.6381C64.0339 86.7725 64.0573 88.2666 63.9601 89.3519Z" fill="black"/>
<path d="M36.637 77C36.947 74.0562 36.9095 71.4772 36.9111 68.5214L36.9112 59.1443L36.9196 26.3445L36.9077 18.445C36.9069 17.5279 36.8526 14.982 37.0416 14.2383C37.9737 13.8737 46.9169 14.0359 48.4458 14.0364L68.4688 14.0394L83.1949 14.0435C98.6359 14.0513 115.476 14.2511 121.962 30.4087C123.163 33.4007 123.581 37.1472 123.512 40.3449C123.483 41.0046 123.574 41.8894 123.332 42.4934C122.706 42.5807 119.714 43.6731 118.854 43.8918C116.611 44.4627 113.997 45.2938 111.728 45.7316C105.772 46.8812 97.9565 48.3326 92.4256 45.305C90.5208 44.2624 89.4318 42.851 87.9431 41.9658C85.4271 39.1796 83.3995 39.4174 79.8242 39.3993C79.0951 39.3956 78.3377 39.3921 77.607 39.3901L68.7648 39.3756C67.4756 39.3732 64.7816 39.431 63.5883 39.2869C63.6208 41.0136 63.3643 44.4754 63.0123 46.1235C62.0992 50.4 59.0168 54.2393 56.0419 57.4434C53.6142 60.058 51.0633 62.9268 48.5226 65.4431L40.7871 73.1103C39.5222 74.3495 38.0588 75.9477 36.637 77Z" fill="black"/>
<path d="M138.24 38.4068C139.289 38.0538 143.645 36.7445 144.454 37.0442L144.412 37.2003C142.901 37.8687 140.129 38.9871 138.543 39.5853C136.849 40.1388 134.894 41.1316 133.214 41.8331L126.288 44.6928C125.334 45.0968 123.343 45.8699 122.6 46.4453C121.608 46.7736 120.632 47.1422 119.674 47.55C119.424 47.6579 118.552 48.1052 118.432 48.1486C117.259 48.4281 116.078 49.0197 114.967 49.4683C112.813 50.3372 110.607 51.4518 108.466 52.3012C93.3534 58.318 78.5767 65.0757 64.1951 72.5472C56.3043 76.7322 48.4486 81.3478 40.9055 86.0724C34.2677 90.2299 28.2199 95.1724 21.8655 99.6877C21.0239 100.286 19.6625 101.757 18.8419 102V101.619C19.5565 101.257 20.284 100.058 20.8369 99.4209C21.9554 98.133 23.0818 96.8631 24.2955 95.6505C31.7988 88.1534 40.0281 80.9737 48.8287 74.8878C49.8174 74.204 50.7206 73.3258 51.711 72.6614C59.3855 67.5132 67.2498 62.7557 75.2746 58.1233C77.9159 56.5947 81.0146 55.0678 83.4491 53.2591C87.7527 50.0616 89.1744 47.2915 87.9268 42.192C89.4158 43.0765 90.5049 44.4868 92.4102 45.5285C97.9422 48.5535 105.76 47.1034 111.717 45.9548C113.986 45.5173 116.601 44.6869 118.844 44.1165C119.704 43.898 122.697 42.8064 123.322 42.7192C125.045 42.3032 126.947 41.3318 128.713 40.9681C131.746 40.3432 135.235 38.9051 138.24 38.4068Z" fill="#0168FD"/>
<mask id="path-5-outside-1_5_62" maskUnits="userSpaceOnUse" x="152" y="27" width="295" height="46" fill="black">
<rect fill="white" x="152" y="27" width="295" height="46"/>
<path d="M153.599 72V28.08H187.271C188.816 28.08 190.219 28.4663 191.48 29.239C192.781 30.0117 193.818 31.0487 194.591 32.35C195.364 33.6107 195.75 35.0137 195.75 36.559V45.16C195.75 45.6887 195.709 46.197 195.628 46.685C195.547 47.173 195.404 47.6407 195.201 48.088C195.892 49.0233 196.441 49.9993 196.848 51.016C197.295 52.0327 197.519 53.0493 197.519 54.066V63.521C197.519 65.0663 197.133 66.4897 196.36 67.791C195.587 69.0517 194.55 70.0683 193.249 70.841C191.948 71.6137 190.524 72 188.979 72H153.599ZM162.383 63.887H188.613C188.816 63.887 188.999 63.826 189.162 63.704C189.325 63.5413 189.406 63.3583 189.406 63.155V54.432C189.406 54.2287 189.325 54.066 189.162 53.944C188.999 53.7813 188.816 53.7 188.613 53.7H162.383C162.18 53.7 161.997 53.7813 161.834 53.944C161.712 54.066 161.651 54.2287 161.651 54.432V63.155C161.651 63.3583 161.712 63.5413 161.834 63.704C161.997 63.826 162.18 63.887 162.383 63.887ZM162.383 45.587H186.905C187.108 45.587 187.271 45.526 187.393 45.404C187.515 45.2413 187.576 45.0583 187.576 44.855V36.925C187.576 36.7217 187.515 36.559 187.393 36.437C187.271 36.2743 187.108 36.193 186.905 36.193H162.383C162.18 36.193 161.997 36.2743 161.834 36.437C161.712 36.559 161.651 36.7217 161.651 36.925V44.855C161.651 45.0583 161.712 45.2413 161.834 45.404C161.997 45.526 162.18 45.587 162.383 45.587ZM204.292 72V28.08H244.735V36.193H212.405V45.953H238.391V54.127H212.405V63.887H244.735V72H204.292ZM267.953 72V55.53L247.701 28.08H257.217L272.04 46.685L286.68 28.08H296.379L276.066 55.591V72H267.953ZM308.376 72C306.83 72 305.407 71.6137 304.106 70.841C302.845 70.0683 301.828 69.0517 301.056 67.791C300.283 66.4897 299.897 65.0663 299.897 63.521V36.559C299.897 35.0137 300.283 33.6107 301.056 32.35C301.828 31.0487 302.845 30.0117 304.106 29.239C305.407 28.4663 306.83 28.08 308.376 28.08H335.338C336.883 28.08 338.286 28.4663 339.547 29.239C340.848 30.0117 341.885 31.0487 342.658 32.35C343.43 33.6107 343.817 35.0137 343.817 36.559V63.521C343.817 65.0663 343.43 66.4897 342.658 67.791C341.885 69.0517 340.848 70.0683 339.547 70.841C338.286 71.6137 336.883 72 335.338 72H308.376ZM308.681 63.887H334.911C335.114 63.887 335.297 63.826 335.46 63.704C335.622 63.5413 335.704 63.3583 335.704 63.155V36.925C335.704 36.7217 335.622 36.559 335.46 36.437C335.297 36.2743 335.114 36.193 334.911 36.193H308.681C308.477 36.193 308.294 36.2743 308.132 36.437C308.01 36.559 307.949 36.7217 307.949 36.925V63.155C307.949 63.3583 308.01 63.5413 308.132 63.704C308.294 63.826 308.477 63.887 308.681 63.887ZM350.534 72V28.08H359.379L386.341 60.166V28.08H394.454V72H385.609L358.586 39.853V72H350.534ZM401.41 72V28.08H436.79C438.335 28.08 439.759 28.4663 441.06 29.239C442.361 30.0117 443.398 31.0487 444.171 32.35C444.944 33.6107 445.33 35.0137 445.33 36.559V63.521C445.33 65.0663 444.944 66.4897 444.171 67.791C443.398 69.0517 442.361 70.0683 441.06 70.841C439.759 71.6137 438.335 72 436.79 72H401.41ZM410.133 63.887H436.424C436.627 63.887 436.81 63.826 436.973 63.704C437.136 63.5413 437.217 63.3583 437.217 63.155V36.925C437.217 36.7217 437.136 36.559 436.973 36.437C436.81 36.2743 436.627 36.193 436.424 36.193H410.133C409.93 36.193 409.747 36.2743 409.584 36.437C409.462 36.559 409.401 36.7217 409.401 36.925V63.155C409.401 63.3583 409.462 63.5413 409.584 63.704C409.747 63.826 409.93 63.887 410.133 63.887Z"/>
</mask>
<path d="M153.599 72V28.08H187.271C188.816 28.08 190.219 28.4663 191.48 29.239C192.781 30.0117 193.818 31.0487 194.591 32.35C195.364 33.6107 195.75 35.0137 195.75 36.559V45.16C195.75 45.6887 195.709 46.197 195.628 46.685C195.547 47.173 195.404 47.6407 195.201 48.088C195.892 49.0233 196.441 49.9993 196.848 51.016C197.295 52.0327 197.519 53.0493 197.519 54.066V63.521C197.519 65.0663 197.133 66.4897 196.36 67.791C195.587 69.0517 194.55 70.0683 193.249 70.841C191.948 71.6137 190.524 72 188.979 72H153.599ZM162.383 63.887H188.613C188.816 63.887 188.999 63.826 189.162 63.704C189.325 63.5413 189.406 63.3583 189.406 63.155V54.432C189.406 54.2287 189.325 54.066 189.162 53.944C188.999 53.7813 188.816 53.7 188.613 53.7H162.383C162.18 53.7 161.997 53.7813 161.834 53.944C161.712 54.066 161.651 54.2287 161.651 54.432V63.155C161.651 63.3583 161.712 63.5413 161.834 63.704C161.997 63.826 162.18 63.887 162.383 63.887ZM162.383 45.587H186.905C187.108 45.587 187.271 45.526 187.393 45.404C187.515 45.2413 187.576 45.0583 187.576 44.855V36.925C187.576 36.7217 187.515 36.559 187.393 36.437C187.271 36.2743 187.108 36.193 186.905 36.193H162.383C162.18 36.193 161.997 36.2743 161.834 36.437C161.712 36.559 161.651 36.7217 161.651 36.925V44.855C161.651 45.0583 161.712 45.2413 161.834 45.404C161.997 45.526 162.18 45.587 162.383 45.587ZM204.292 72V28.08H244.735V36.193H212.405V45.953H238.391V54.127H212.405V63.887H244.735V72H204.292ZM267.953 72V55.53L247.701 28.08H257.217L272.04 46.685L286.68 28.08H296.379L276.066 55.591V72H267.953ZM308.376 72C306.83 72 305.407 71.6137 304.106 70.841C302.845 70.0683 301.828 69.0517 301.056 67.791C300.283 66.4897 299.897 65.0663 299.897 63.521V36.559C299.897 35.0137 300.283 33.6107 301.056 32.35C301.828 31.0487 302.845 30.0117 304.106 29.239C305.407 28.4663 306.83 28.08 308.376 28.08H335.338C336.883 28.08 338.286 28.4663 339.547 29.239C340.848 30.0117 341.885 31.0487 342.658 32.35C343.43 33.6107 343.817 35.0137 343.817 36.559V63.521C343.817 65.0663 343.43 66.4897 342.658 67.791C341.885 69.0517 340.848 70.0683 339.547 70.841C338.286 71.6137 336.883 72 335.338 72H308.376ZM308.681 63.887H334.911C335.114 63.887 335.297 63.826 335.46 63.704C335.622 63.5413 335.704 63.3583 335.704 63.155V36.925C335.704 36.7217 335.622 36.559 335.46 36.437C335.297 36.2743 335.114 36.193 334.911 36.193H308.681C308.477 36.193 308.294 36.2743 308.132 36.437C308.01 36.559 307.949 36.7217 307.949 36.925V63.155C307.949 63.3583 308.01 63.5413 308.132 63.704C308.294 63.826 308.477 63.887 308.681 63.887ZM350.534 72V28.08H359.379L386.341 60.166V28.08H394.454V72H385.609L358.586 39.853V72H350.534ZM401.41 72V28.08H436.79C438.335 28.08 439.759 28.4663 441.06 29.239C442.361 30.0117 443.398 31.0487 444.171 32.35C444.944 33.6107 445.33 35.0137 445.33 36.559V63.521C445.33 65.0663 444.944 66.4897 444.171 67.791C443.398 69.0517 442.361 70.0683 441.06 70.841C439.759 71.6137 438.335 72 436.79 72H401.41ZM410.133 63.887H436.424C436.627 63.887 436.81 63.826 436.973 63.704C437.136 63.5413 437.217 63.3583 437.217 63.155V36.925C437.217 36.7217 437.136 36.559 436.973 36.437C436.81 36.2743 436.627 36.193 436.424 36.193H410.133C409.93 36.193 409.747 36.2743 409.584 36.437C409.462 36.559 409.401 36.7217 409.401 36.925V63.155C409.401 63.3583 409.462 63.5413 409.584 63.704C409.747 63.826 409.93 63.887 410.133 63.887Z" fill="black"/>
<path d="M153.599 72H152.599V73H153.599V72ZM153.599 28.08V27.08H152.599V28.08H153.599ZM191.48 29.239L190.957 30.0917L190.969 30.0989L191.48 29.239ZM194.591 32.35L193.731 32.8606L193.738 32.8726L194.591 32.35ZM195.628 46.685L194.642 46.5206V46.5206L195.628 46.685ZM195.201 48.088L194.291 47.6742L194.047 48.2095L194.397 48.6824L195.201 48.088ZM196.848 51.016L195.92 51.3874L195.926 51.4032L195.933 51.4187L196.848 51.016ZM196.36 67.791L197.213 68.3136L197.22 68.3015L196.36 67.791ZM193.249 70.841L192.738 69.9811L193.249 70.841ZM189.162 63.704L189.762 64.504L189.819 64.4614L189.869 64.4111L189.162 63.704ZM189.162 53.944L188.455 54.6511L188.505 54.7014L188.562 54.744L189.162 53.944ZM161.834 53.944L162.541 54.6511L161.834 53.944ZM161.834 63.704L161.034 64.304L161.12 64.4183L161.234 64.504L161.834 63.704ZM187.393 45.404L188.1 46.1111L188.15 46.0609L188.193 46.004L187.393 45.404ZM187.393 36.437L186.593 37.037L186.636 37.0939L186.686 37.1441L187.393 36.437ZM161.834 36.437L162.541 37.1441L162.541 37.1441L161.834 36.437ZM161.834 45.404L161.034 46.004L161.12 46.1183L161.234 46.204L161.834 45.404ZM153.599 72H154.599V28.08H153.599H152.599V72H153.599ZM153.599 28.08V29.08H187.271V28.08V27.08H153.599V28.08ZM187.271 28.08V29.08C188.641 29.08 189.861 29.4198 190.957 30.0916L191.48 29.239L192.003 28.3864C190.577 27.5129 188.992 27.08 187.271 27.08V28.08ZM191.48 29.239L190.969 30.0989C192.127 30.7861 193.044 31.703 193.731 32.8605L194.591 32.35L195.451 31.8395C194.593 30.3943 193.436 29.2372 191.991 28.3791L191.48 29.239ZM194.591 32.35L193.738 32.8726C194.41 33.9687 194.75 35.1894 194.75 36.559H195.75H196.75C196.75 34.8379 196.317 33.2526 195.444 31.8274L194.591 32.35ZM195.75 36.559H194.75V45.16H195.75H196.75V36.559H195.75ZM195.75 45.16H194.75C194.75 45.6373 194.713 46.0905 194.642 46.5206L195.628 46.685L196.614 46.8494C196.705 46.3035 196.75 45.74 196.75 45.16H195.75ZM195.628 46.685L194.642 46.5206C194.575 46.9231 194.458 47.3069 194.291 47.6742L195.201 48.088L196.111 48.5018C196.351 47.9745 196.519 47.4229 196.614 46.8494L195.628 46.685ZM195.201 48.088L194.397 48.6824C195.041 49.5533 195.547 50.4548 195.92 51.3874L196.848 51.016L197.776 50.6446C197.336 49.5438 196.744 48.4934 196.005 47.4936L195.201 48.088ZM196.848 51.016L195.933 51.4187C196.329 52.3203 196.519 53.2004 196.519 54.066H197.519H198.519C198.519 52.8983 198.261 51.745 197.763 50.6133L196.848 51.016ZM197.519 54.066H196.519V63.521H197.519H198.519V54.066H197.519ZM197.519 63.521H196.519C196.519 64.8906 196.179 66.137 195.5 67.2805L196.36 67.791L197.22 68.3015C198.086 66.8423 198.519 65.242 198.519 63.521H197.519ZM196.36 67.791L195.507 67.2684C194.822 68.3872 193.903 69.2894 192.738 69.9811L193.249 70.841L193.76 71.7009C195.197 70.8473 196.353 69.7161 197.213 68.3136L196.36 67.791ZM193.249 70.841L192.738 69.9811C191.595 70.6601 190.349 71 188.979 71V72V73C190.7 73 192.3 72.5673 193.76 71.7009L193.249 70.841ZM188.979 72V71H153.599V72V73H188.979V72ZM162.383 63.887V64.887H188.613V63.887V62.887H162.383V63.887ZM188.613 63.887V64.887C189.033 64.887 189.426 64.7558 189.762 64.504L189.162 63.704L188.562 62.904C188.562 62.904 188.571 62.8979 188.587 62.8926C188.602 62.8873 188.613 62.887 188.613 62.887V63.887ZM189.162 63.704L189.869 64.4111C190.192 64.0878 190.406 63.6592 190.406 63.155H189.406H188.406C188.406 63.119 188.414 63.077 188.431 63.0386C188.447 63.0026 188.462 62.9896 188.455 62.9969L189.162 63.704ZM189.406 63.155H190.406V54.432H189.406H188.406V63.155H189.406ZM189.406 54.432H190.406C190.406 53.9139 190.176 53.4548 189.762 53.144L189.162 53.944L188.562 54.744C188.534 54.723 188.487 54.6779 188.451 54.6047C188.414 54.5315 188.406 54.4671 188.406 54.432H189.406ZM189.162 53.944L189.869 53.2369C189.546 52.9135 189.117 52.7 188.613 52.7V53.7V54.7C188.577 54.7 188.535 54.6919 188.497 54.6748C188.461 54.6588 188.448 54.6438 188.455 54.6511L189.162 53.944ZM188.613 53.7V52.7H162.383V53.7V54.7H188.613V53.7ZM162.383 53.7V52.7C161.879 52.7 161.45 52.9135 161.127 53.2369L161.834 53.944L162.541 54.6511C162.548 54.6438 162.535 54.6588 162.499 54.6748C162.461 54.6919 162.419 54.7 162.383 54.7V53.7ZM161.834 53.944L161.127 53.2369C160.784 53.5796 160.651 54.0144 160.651 54.432H161.651H162.651C162.651 54.4302 162.651 54.4603 162.633 54.5086C162.614 54.56 162.582 54.6104 162.541 54.6511L161.834 53.944ZM161.651 54.432H160.651V63.155H161.651H162.651V54.432H161.651ZM161.651 63.155H160.651C160.651 63.5747 160.782 63.9682 161.034 64.304L161.834 63.704L162.634 63.104C162.634 63.104 162.64 63.1127 162.645 63.1285C162.651 63.1444 162.651 63.155 162.651 63.155H161.651ZM161.834 63.704L161.234 64.504C161.57 64.7558 161.963 64.887 162.383 64.887V63.887V62.887C162.383 62.887 162.394 62.8873 162.409 62.8926C162.425 62.8979 162.434 62.904 162.434 62.904L161.834 63.704ZM162.383 45.587V46.587H186.905V45.587V44.587H162.383V45.587ZM186.905 45.587V46.587C187.323 46.587 187.757 46.4538 188.1 46.1111L187.393 45.404L186.686 44.6969C186.727 44.6562 186.777 44.6242 186.828 44.6049C186.877 44.5868 186.907 44.587 186.905 44.587V45.587ZM187.393 45.404L188.193 46.004C188.445 45.6682 188.576 45.2747 188.576 44.855H187.576H186.576C186.576 44.855 186.576 44.8444 186.582 44.8285C186.587 44.8126 186.593 44.804 186.593 44.804L187.393 45.404ZM187.576 44.855H188.576V36.925H187.576H186.576V44.855H187.576ZM187.576 36.925H188.576C188.576 36.5074 188.443 36.0726 188.1 35.7299L187.393 36.437L186.686 37.1441C186.645 37.1035 186.613 37.053 186.594 37.0016C186.576 36.9533 186.576 36.9232 186.576 36.925H187.576ZM187.393 36.437L188.193 35.837C187.882 35.4225 187.423 35.193 186.905 35.193V36.193V37.193C186.87 37.193 186.805 37.185 186.732 37.1484C186.659 37.1118 186.614 37.065 186.593 37.037L187.393 36.437ZM186.905 36.193V35.193H162.383V36.193V37.193H186.905V36.193ZM162.383 36.193V35.193C161.879 35.193 161.45 35.4065 161.127 35.7299L161.834 36.437L162.541 37.1441C162.548 37.1368 162.535 37.1518 162.499 37.1678C162.461 37.1849 162.419 37.193 162.383 37.193V36.193ZM161.834 36.437L161.127 35.7299C160.784 36.0726 160.651 36.5074 160.651 36.925H161.651H162.651C162.651 36.9232 162.651 36.9533 162.633 37.0016C162.614 37.053 162.582 37.1035 162.541 37.1441L161.834 36.437ZM161.651 36.925H160.651V44.855H161.651H162.651V36.925H161.651ZM161.651 44.855H160.651C160.651 45.2747 160.782 45.6682 161.034 46.004L161.834 45.404L162.634 44.804C162.634 44.804 162.64 44.8127 162.645 44.8285C162.651 44.8444 162.651 44.855 162.651 44.855H161.651ZM161.834 45.404L161.234 46.204C161.57 46.4558 161.963 46.587 162.383 46.587V45.587V44.587C162.383 44.587 162.394 44.5873 162.409 44.5926C162.425 44.5979 162.434 44.604 162.434 44.604L161.834 45.404ZM204.292 72H203.292V73H204.292V72ZM204.292 28.08V27.08H203.292V28.08H204.292ZM244.735 28.08H245.735V27.08H244.735V28.08ZM244.735 36.193V37.193H245.735V36.193H244.735ZM212.405 36.193V35.193H211.405V36.193H212.405ZM212.405 45.953H211.405V46.953H212.405V45.953ZM238.391 45.953H239.391V44.953H238.391V45.953ZM238.391 54.127V55.127H239.391V54.127H238.391ZM212.405 54.127V53.127H211.405V54.127H212.405ZM212.405 63.887H211.405V64.887H212.405V63.887ZM244.735 63.887H245.735V62.887H244.735V63.887ZM244.735 72V73H245.735V72H244.735ZM204.292 72H205.292V28.08H204.292H203.292V72H204.292ZM204.292 28.08V29.08H244.735V28.08V27.08H204.292V28.08ZM244.735 28.08H243.735V36.193H244.735H245.735V28.08H244.735ZM244.735 36.193V35.193H212.405V36.193V37.193H244.735V36.193ZM212.405 36.193H211.405V45.953H212.405H213.405V36.193H212.405ZM212.405 45.953V46.953H238.391V45.953V44.953H212.405V45.953ZM238.391 45.953H237.391V54.127H238.391H239.391V45.953H238.391ZM238.391 54.127V53.127H212.405V54.127V55.127H238.391V54.127ZM212.405 54.127H211.405V63.887H212.405H213.405V54.127H212.405ZM212.405 63.887V64.887H244.735V63.887V62.887H212.405V63.887ZM244.735 63.887H243.735V72H244.735H245.735V63.887H244.735ZM244.735 72V71H204.292V72V73H244.735V72ZM267.953 72H266.953V73H267.953V72ZM267.953 55.53H268.953V55.201L268.758 54.9363L267.953 55.53ZM247.701 28.08V27.08H245.721L246.896 28.6737L247.701 28.08ZM257.217 28.08L257.999 27.4569L257.699 27.08H257.217V28.08ZM272.04 46.685L271.258 47.3081L272.045 48.2959L272.826 47.3034L272.04 46.685ZM286.68 28.08V27.08H286.194L285.894 27.4616L286.68 28.08ZM296.379 28.08L297.184 28.674L298.36 27.08H296.379V28.08ZM276.066 55.591L275.262 54.997L275.066 55.2618V55.591H276.066ZM276.066 72V73H277.066V72H276.066ZM267.953 72H268.953V55.53H267.953H266.953V72H267.953ZM267.953 55.53L268.758 54.9363L248.506 27.4863L247.701 28.08L246.896 28.6737L267.148 56.1237L267.953 55.53ZM247.701 28.08V29.08H257.217V28.08V27.08H247.701V28.08ZM257.217 28.08L256.435 28.7031L271.258 47.3081L272.04 46.685L272.822 46.0619L257.999 27.4569L257.217 28.08ZM272.04 46.685L272.826 47.3034L287.466 28.6984L286.68 28.08L285.894 27.4616L271.254 46.0666L272.04 46.685ZM286.68 28.08V29.08H296.379V28.08V27.08H286.68V28.08ZM296.379 28.08L295.575 27.486L275.262 54.997L276.066 55.591L276.871 56.185L297.184 28.674L296.379 28.08ZM276.066 55.591H275.066V72H276.066H277.066V55.591H276.066ZM276.066 72V71H267.953V72V73H276.066V72ZM304.106 70.841L303.583 71.6937L303.595 71.7009L304.106 70.841ZM301.056 67.791L300.196 68.3016L300.203 68.3136L301.056 67.791ZM301.056 32.35L301.908 32.8726L301.915 32.8605L301.056 32.35ZM304.106 29.239L303.595 28.3791L303.583 28.3864L304.106 29.239ZM339.547 29.239L339.024 30.0917L339.036 30.0989L339.547 29.239ZM342.658 32.35L341.798 32.8606L341.805 32.8726L342.658 32.35ZM342.658 67.791L343.51 68.3136L343.517 68.3015L342.658 67.791ZM339.547 70.841L339.036 69.9811L339.024 69.9884L339.547 70.841ZM335.46 63.704L336.06 64.504L336.116 64.4614L336.167 64.4111L335.46 63.704ZM335.46 36.437L334.752 37.1441L334.803 37.1944L334.86 37.237L335.46 36.437ZM308.132 36.437L308.839 37.1441L308.839 37.1441L308.132 36.437ZM308.132 63.704L307.332 64.304L307.417 64.4183L307.532 64.504L308.132 63.704ZM308.376 72V71C307.006 71 305.76 70.6601 304.616 69.9811L304.106 70.841L303.595 71.7009C305.054 72.5673 306.655 73 308.376 73V72ZM304.106 70.841L304.628 69.9884C303.502 69.2982 302.598 68.3946 301.908 67.2684L301.056 67.791L300.203 68.3136C301.058 69.7087 302.188 70.8385 303.583 71.6936L304.106 70.841ZM301.056 67.791L301.915 67.2805C301.236 66.137 300.897 64.8906 300.897 63.521H299.897H298.897C298.897 65.242 299.329 66.8423 300.196 68.3015L301.056 67.791ZM299.897 63.521H300.897V36.559H299.897H298.897V63.521H299.897ZM299.897 36.559H300.897C300.897 35.1894 301.236 33.9687 301.908 32.8726L301.056 32.35L300.203 31.8274C299.329 33.2526 298.897 34.8379 298.897 36.559H299.897ZM301.056 32.35L301.915 32.8605C302.607 31.6955 303.509 30.7773 304.628 30.0916L304.106 29.239L303.583 28.3864C302.18 29.246 301.049 30.4018 300.196 31.8395L301.056 32.35ZM304.106 29.239L304.616 30.0989C305.76 29.4199 307.006 29.08 308.376 29.08V28.08V27.08C306.655 27.08 305.054 27.5127 303.595 28.3791L304.106 29.239ZM308.376 28.08V29.08H335.338V28.08V27.08H308.376V28.08ZM335.338 28.08V29.08C336.707 29.08 337.928 29.4198 339.024 30.0916L339.547 29.239L340.069 28.3864C338.644 27.5129 337.059 27.08 335.338 27.08V28.08ZM339.547 29.239L339.036 30.0989C340.194 30.7861 341.11 31.703 341.798 32.8605L342.658 32.35L343.517 31.8395C342.659 30.3943 341.502 29.2372 340.057 28.3791L339.547 29.239ZM342.658 32.35L341.805 32.8726C342.477 33.9687 342.817 35.1894 342.817 36.559H343.817H344.817C344.817 34.8379 344.384 33.2526 343.51 31.8274L342.658 32.35ZM343.817 36.559H342.817V63.521H343.817H344.817V36.559H343.817ZM343.817 63.521H342.817C342.817 64.8906 342.477 66.137 341.798 67.2805L342.658 67.791L343.517 68.3015C344.384 66.8423 344.817 65.242 344.817 63.521H343.817ZM342.658 67.791L341.805 67.2684C341.119 68.3872 340.201 69.2894 339.036 69.9811L339.547 70.841L340.057 71.7009C341.495 70.8473 342.65 69.7161 343.51 68.3136L342.658 67.791ZM339.547 70.841L339.024 69.9884C337.928 70.6602 336.707 71 335.338 71V72V73C337.059 73 338.644 72.5671 340.069 71.6936L339.547 70.841ZM335.338 72V71H308.376V72V73H335.338V72ZM308.681 63.887V64.887H334.911V63.887V62.887H308.681V63.887ZM334.911 63.887V64.887C335.33 64.887 335.724 64.7558 336.06 64.504L335.46 63.704L334.86 62.904C334.86 62.904 334.868 62.8979 334.884 62.8926C334.9 62.8873 334.911 62.887 334.911 62.887V63.887ZM335.46 63.704L336.167 64.4111C336.49 64.0878 336.704 63.6592 336.704 63.155H335.704H334.704C334.704 63.119 334.712 63.077 334.729 63.0386C334.745 63.0026 334.76 62.9896 334.752 62.9969L335.46 63.704ZM335.704 63.155H336.704V36.925H335.704H334.704V63.155H335.704ZM335.704 36.925H336.704C336.704 36.4069 336.474 35.9478 336.06 35.637L335.46 36.437L334.86 37.237C334.831 37.216 334.785 37.1709 334.748 37.0977C334.712 37.0245 334.704 36.9601 334.704 36.925H335.704ZM335.46 36.437L336.167 35.7299C335.843 35.4065 335.415 35.193 334.911 35.193V36.193V37.193C334.874 37.193 334.833 37.1849 334.794 37.1678C334.758 37.1518 334.745 37.1368 334.752 37.1441L335.46 36.437ZM334.911 36.193V35.193H308.681V36.193V37.193H334.911V36.193ZM308.681 36.193V35.193C308.176 35.193 307.748 35.4065 307.424 35.7299L308.132 36.437L308.839 37.1441C308.846 37.1368 308.833 37.1518 308.797 37.1678C308.759 37.1849 308.717 37.193 308.681 37.193V36.193ZM308.132 36.437L307.424 35.7299C307.082 36.0726 306.949 36.5074 306.949 36.925H307.949H308.949C308.949 36.9232 308.949 36.9533 308.931 37.0016C308.911 37.053 308.879 37.1035 308.839 37.1441L308.132 36.437ZM307.949 36.925H306.949V63.155H307.949H308.949V36.925H307.949ZM307.949 63.155H306.949C306.949 63.5747 307.08 63.9682 307.332 64.304L308.132 63.704L308.932 63.104C308.932 63.104 308.938 63.1127 308.943 63.1285C308.948 63.1444 308.949 63.155 308.949 63.155H307.949ZM308.132 63.704L307.532 64.504C307.867 64.7558 308.261 64.887 308.681 64.887V63.887V62.887C308.681 62.887 308.691 62.8873 308.707 62.8926C308.723 62.8979 308.732 62.904 308.732 62.904L308.132 63.704ZM350.534 72H349.534V73H350.534V72ZM350.534 28.08V27.08H349.534V28.08H350.534ZM359.379 28.08L360.145 27.4367L359.845 27.08H359.379V28.08ZM386.341 60.166L385.576 60.8093L387.341 62.9105V60.166H386.341ZM386.341 28.08V27.08H385.341V28.08H386.341ZM394.454 28.08H395.454V27.08H394.454V28.08ZM394.454 72V73H395.454V72H394.454ZM385.609 72L384.844 72.6435L385.143 73H385.609V72ZM358.586 39.853L359.352 39.2095L357.586 37.1093V39.853H358.586ZM358.586 72V73H359.586V72H358.586ZM350.534 72H351.534V28.08H350.534H349.534V72H350.534ZM350.534 28.08V29.08H359.379V28.08V27.08H350.534V28.08ZM359.379 28.08L358.614 28.7233L385.576 60.8093L386.341 60.166L387.107 59.5227L360.145 27.4367L359.379 28.08ZM386.341 60.166H387.341V28.08H386.341H385.341V60.166H386.341ZM386.341 28.08V29.08H394.454V28.08V27.08H386.341V28.08ZM394.454 28.08H393.454V72H394.454H395.454V28.08H394.454ZM394.454 72V71H385.609V72V73H394.454V72ZM385.609 72L386.375 71.3565L359.352 39.2095L358.586 39.853L357.821 40.4965L384.844 72.6435L385.609 72ZM358.586 39.853H357.586V72H358.586H359.586V39.853H358.586ZM358.586 72V71H350.534V72V73H358.586V72ZM401.41 72H400.41V73H401.41V72ZM401.41 28.08V27.08H400.41V28.08H401.41ZM441.06 29.239L440.55 30.0989V30.0989L441.06 29.239ZM444.171 32.35L443.311 32.8606L443.318 32.8726L444.171 32.35ZM444.171 67.791L445.024 68.3136L445.031 68.3015L444.171 67.791ZM441.06 70.841L440.55 69.9811V69.9811L441.06 70.841ZM436.973 63.704L437.573 64.504L437.63 64.4614L437.68 64.4111L436.973 63.704ZM436.973 36.437L436.266 37.1441L436.316 37.1944L436.373 37.237L436.973 36.437ZM409.584 36.437L410.291 37.1441V37.1441L409.584 36.437ZM409.584 63.704L408.784 64.304L408.87 64.4183L408.984 64.504L409.584 63.704ZM401.41 72H402.41V28.08H401.41H400.41V72H401.41ZM401.41 28.08V29.08H436.79V28.08V27.08H401.41V28.08ZM436.79 28.08V29.08C438.16 29.08 439.406 29.4199 440.55 30.0989L441.06 29.239L441.571 28.3791C440.111 27.5127 438.511 27.08 436.79 27.08V28.08ZM441.06 29.239L440.55 30.0989C441.707 30.7861 442.624 31.703 443.311 32.8605L444.171 32.35L445.031 31.8395C444.173 30.3943 443.016 29.2372 441.571 28.3791L441.06 29.239ZM444.171 32.35L443.318 32.8726C443.99 33.9687 444.33 35.1894 444.33 36.559H445.33H446.33C446.33 34.8379 445.897 33.2526 445.024 31.8274L444.171 32.35ZM445.33 36.559H444.33V63.521H445.33H446.33V36.559H445.33ZM445.33 63.521H444.33C444.33 64.8906 443.99 66.137 443.311 67.2805L444.171 67.791L445.031 68.3015C445.897 66.8423 446.33 65.242 446.33 63.521H445.33ZM444.171 67.791L443.318 67.2684C442.633 68.3872 441.715 69.2894 440.55 69.9811L441.06 70.841L441.571 71.7009C443.008 70.8473 444.164 69.7161 445.024 68.3136L444.171 67.791ZM441.06 70.841L440.55 69.9811C439.406 70.6601 438.16 71 436.79 71V72V73C438.511 73 440.111 72.5673 441.571 71.7009L441.06 70.841ZM436.79 72V71H401.41V72V73H436.79V72ZM410.133 63.887V64.887H436.424V63.887V62.887H410.133V63.887ZM436.424 63.887V64.887C436.844 64.887 437.237 64.7558 437.573 64.504L436.973 63.704L436.373 62.904C436.373 62.904 436.382 62.8979 436.398 62.8926C436.413 62.8873 436.424 62.887 436.424 62.887V63.887ZM436.973 63.704L437.68 64.4111C438.004 64.0878 438.217 63.6592 438.217 63.155H437.217H436.217C436.217 63.119 436.225 63.077 436.242 63.0386C436.258 63.0026 436.273 62.9896 436.266 62.9969L436.973 63.704ZM437.217 63.155H438.217V36.925H437.217H436.217V63.155H437.217ZM437.217 36.925H438.217C438.217 36.4069 437.988 35.9478 437.573 35.637L436.973 36.437L436.373 37.237C436.345 37.216 436.298 37.1709 436.262 37.0977C436.225 37.0245 436.217 36.9601 436.217 36.925H437.217ZM436.973 36.437L437.68 35.7299C437.357 35.4065 436.928 35.193 436.424 35.193V36.193V37.193C436.388 37.193 436.346 37.1849 436.308 37.1678C436.272 37.1518 436.259 37.1368 436.266 37.1441L436.973 36.437ZM436.424 36.193V35.193H410.133V36.193V37.193H436.424V36.193ZM410.133 36.193V35.193C409.629 35.193 409.2 35.4065 408.877 35.7299L409.584 36.437L410.291 37.1441C410.298 37.1368 410.285 37.1518 410.249 37.1678C410.211 37.1849 410.169 37.193 410.133 37.193V36.193ZM409.584 36.437L408.877 35.7299C408.534 36.0726 408.401 36.5074 408.401 36.925H409.401H410.401C410.401 36.9232 410.401 36.9533 410.383 37.0016C410.364 37.053 410.332 37.1035 410.291 37.1441L409.584 36.437ZM409.401 36.925H408.401V63.155H409.401H410.401V36.925H409.401ZM409.401 63.155H408.401C408.401 63.5747 408.532 63.9682 408.784 64.304L409.584 63.704L410.384 63.104C410.384 63.104 410.39 63.1127 410.396 63.1285C410.401 63.1444 410.401 63.155 410.401 63.155H409.401ZM409.584 63.704L408.984 64.504C409.32 64.7558 409.713 64.887 410.133 64.887V63.887V62.887C410.133 62.887 410.144 62.8873 410.16 62.8926C410.175 62.8979 410.184 62.904 410.184 62.904L409.584 63.704Z" fill="black" mask="url(#path-5-outside-1_5_62)"/>
</svg>
